<?xml version="1.0" encoding="UTF-8"?>
<svg width="16px" height="10px" viewBox="0 0 16 10" version="1.1" xmlns="http://www.w3.org/2000/svg" xmlns:xlink="http://www.w3.org/1999/xlink">
    <!-- Generator: Sketch 52.3 (67297) - http://www.bohemiancoding.com/sketch -->
    <title>programming-browser-1</title>
    <desc>Created with Sketch.</desc>
    <g id="Page-1" stroke="none" stroke-width="1" fill="none" fill-rule="evenodd">
        <g id="3-Module-Explorer-Update-2" transform="translate(-930.000000, -796.000000)" fill="#2D2D2F">
            <g id="programming-browser-1" transform="translate(930.000000, 796.000000)">
                <path d="M0.357160878,7.80743835 C0.0528579202,8.0897198 -0.0690324184,8.50758485 0.0383381663,8.90042792 C0.145708751,9.29327099 0.465631043,9.59995709 0.875143559,9.70261204 C1.28465608,9.80526699 1.72002969,9.68791543 2.01392945,9.3956612 L5.91771967,5.64985261 C6.13741801,5.43934522 6.26086957,5.15365581 6.26086957,4.85574119 C6.26086957,4.55782656 6.13741801,4.27213715 5.91771967,4.06162977 L2.01392945,0.315821178 C1.55461004,-0.110258634 0.824157974,-0.104500794 0.372195825,0.328762259 C-0.079766324,0.762025311 -0.0864557819,1.46291113 0.357160878,1.90404402 L3.15695923,4.59053794 C3.23038304,4.6608125 3.27164773,4.75623209 3.27164773,4.85574119 C3.27164773,4.95525029 3.23038304,5.05066987 3.15695923,5.12094443 L0.357160878,7.80743835 Z" id="Path"></path>
                <path d="M8.79051383,8.34782609 L14.8616601,8.34782609 C15.4903479,8.34782609 16,7.88064496 16,7.30434783 C16,6.7280507 15.4903479,6.26086957 14.8616601,6.26086957 L8.79051383,6.26086957 C8.16182606,6.26086957 7.65217391,6.7280507 7.65217391,7.30434783 C7.65217391,7.88064496 8.16182606,8.34782609 8.79051383,8.34782609 Z" id="Path"></path>
            </g>
        </g>
    </g>
</svg>