<?xml version="1.0" encoding="UTF-8"?>
<svg width="24px" height="22px" viewBox="0 0 24 22" version="1.1" xmlns="http://www.w3.org/2000/svg" xmlns:xlink="http://www.w3.org/1999/xlink">
    <!-- Generator: Sketch 52.2 (67145) - http://www.bohemiancoding.com/sketch -->
    <title>cloud-file</title>
    <desc>Created with Sketch.</desc>
    <g id="Page-1" stroke="none" stroke-width="1" fill="none" fill-rule="evenodd">
        <g id="ENV-/-Data-/-Keysets" transform="translate(-1123.000000, -26.000000)" fill="#666668">
            <g id="cloud-file" transform="translate(1122.000000, 26.000000)">
                <path d="M25,10.623 L25.0000002,10.6229947 C25.1176902,7.5668247 22.8287002,4.9504647 19.7839902,4.6609947 C19.7048174,4.65377964 19.6338492,4.6091923 19.5929902,4.5409947 L19.5929904,4.54099497 C17.4152204,0.898634966 12.6970704,-0.288645034 9.05469035,1.88913497 C7.23642035,2.97628497 5.94766035,4.76587497 5.49297035,6.83499497 C5.47049657,6.9448969 5.37782737,7.0265429 5.26597037,7.0349949 L5.26597023,7.03499491 C3.76014023,7.14477691 2.40172023,7.97989591 1.62398023,9.27399491 L1.62398007,9.27399518 C1.18473707,10.0133102 0.968076065,10.8636352 0.999980065,11.7229952 L0.999979979,11.7229995 C0.976767379,12.8805895 1.42212198,13.9984895 2.23497998,14.8229995 L2.23498037,14.8229998 C3.22129737,15.6966408 4.48946037,16.1855098 5.80698037,16.1999998 L6.51798037,16.1999998 C7.06032433,16.1999999 7.49998033,15.7603438 7.49998033,15.2179998 L7.49998033,15.1809998 L7.49998033,15.1809993 C7.49998033,14.6392083 7.06077133,14.1999993 6.51898033,14.1999993 C6.51864683,14.1999993 6.51831332,14.1999995 6.51797982,14.1999998 L5.81097982,14.1999998 C5.01823984,14.1818776 4.25407984,13.9004188 3.63897984,13.3999998 L3.63897999,13.4 C3.18574099,12.91811 2.95413299,12.26896 2.99997999,11.609 L2.99997999,11.6089996 C2.99997978,10.1804696 4.15744999,9.02209962 5.58597999,9.02099962 C5.76566596,9.02115255 5.94488796,9.03924222 6.12097996,9.07499962 C6.40521796,9.13596482 6.70188096,9.06865791 6.93197996,8.89099962 C7.17495201,8.70498558 7.31938301,8.41796558 7.32398001,8.11199958 C7.40898001,2.37599958 15.61698,0.739999585 18.14198,6.06799958 L18.1419799,6.06799945 C18.3104249,6.43178945 18.6825449,6.65719645 19.0829799,6.63799945 C20.4197399,6.58507246 21.6846599,7.24359546 22.4079799,8.36899946 C23.5325598,10.1409394 23.0077738,12.4890394 21.2358298,13.6136194 C20.9176858,13.8155334 20.5712778,13.9690044 20.2079798,14.0689964 C19.7878787,14.1899614 19.4981447,14.5738284 19.4969797,15.0109964 L19.4969797,15.0110016 C19.4934794,15.5505726 19.9280507,15.9908186 20.4676217,15.9943186 C20.5614367,15.9949272 20.6548507,15.98202 20.7449847,15.9559946 L20.7449848,15.9559946 C23.2156548,15.3600186 24.9675148,13.1643246 24.9999748,10.6229946 L25,10.623 Z" id="Path"></path>
                <path d="M14.5,14.2 C14.223858,14.2 14,13.976142 14,13.7 C14,13.7 14,13.7 14,13.7 L14,10.7 C14,10.423858 13.776142,10.2 13.5,10.2 L9.49999998,10.2 C9.22385796,10.2 8.99999996,10.423858 8.99999996,10.7 C8.99999996,10.7 8.99999996,10.7 8.99999996,10.7 L8.99999996,20.7 C9,20.9761421 9.22385796,21.2000001 9.49999996,21.2000001 L17.5,21.2000001 C17.7761419,21.2000001 17.9999999,20.9761421 17.9999999,20.7000001 L17.9999999,14.7000001 C17.9999999,14.4238581 17.7761419,14.2000001 17.4999999,14.2000001 L14.5,14.2 Z" id="Path"></path>
                <path d="M15.25,13.2 L17.1,13.2 C17.238071,13.1996949 17.349752,13.087519 17.349447,12.949448 C17.3493006,12.8832257 17.3228858,12.819767 17.2760001,12.773 L15.4230001,10.919 C15.3254927,10.8212454 15.1672021,10.8210449 15.0694471,10.9185523 C15.0223162,10.9655639 14.9958811,11.0294313 14.9960002,11.0960003 L14.9960002,12.9500003 L14.9960002,12.9500323 C14.9960002,13.0881033 15.1079292,13.2000323 15.2460002,13.2000323 C15.2473443,13.2000323 15.2486883,13.2000214 15.2500322,13.1999998 L15.25,13.2 Z" id="Path"></path>
            </g>
        </g>
    </g>
</svg>