<?xml version="1.0" encoding="UTF-8"?>
<svg width="135px" height="24px" viewBox="0 0 135 24" version="1.1" xmlns="http://www.w3.org/2000/svg" xmlns:xlink="http://www.w3.org/1999/xlink">
    <!-- Generator: Sketch 52.2 (67145) - http://www.bohemiancoding.com/sketch -->
    <title>Group 5</title>
    <desc>Created with Sketch.</desc>
    <g id="Page-1" stroke="none" stroke-width="1" fill="none" fill-rule="evenodd">
        <g id="ENV-/-Data-/-Keysets" transform="translate(-1256.000000, -27.000000)" fill="#666668">
            <g id="Group-16" transform="translate(1256.000000, 27.000000)">
                <g id="Group-5">
                    <polygon id="Fill-1" points="3.53495011e-13 -1.77635684e-15 3.53495011e-13 23.4820144 23.4820144 23.4820144 11.7408936 11.7410072"></polygon>
                    <polygon id="Fill-2" points="11.7788346 -8.8817842e-16 11.7410072 11.7410072 23.4820144 -8.8817842e-16"></polygon>
                    <polygon id="Fill-3" points="36.2014388 18.5899281 39.1366906 18.5899281 39.1366906 4.89208633 36.2014388 4.89208633"></polygon>
                    <polygon id="Fill-4" points="46.910753 4.89208633 42.4895272 11.4130711 47.942446 18.5899281 44.4790788 18.5899281 39.1366906 11.5672578 43.5395683 4.89208633"></polygon>
                    <path d="M57.3201347,13.6508614 L58.705036,10.7569675 L60.014124,13.6508614 L57.3201347,13.6508614 Z M58.6100986,4.89208633 L51.8561151,18.5899281 L54.8535852,18.5899281 L56.0679635,16.1590572 L61.2662951,16.1590572 L62.4804458,18.5899281 L65.5539568,18.5899281 L58.6100986,4.89208633 Z" id="Fill-5"></path>
                    <path d="M75.761716,15.6707159 L74.3771158,15.6707159 L74.3771158,7.77379785 L75.761716,7.77379785 C77.9674005,7.77379785 79.7553882,9.54171766 79.7553882,11.7223691 C79.7553882,13.9030206 77.9674005,15.6707159 75.761716,15.6707159 M75.8050984,5.07914046 L74.3771158,5.07914046 L71.4243923,5.07914046 L71.4243923,18.3653733 L74.3771158,18.3653733 L75.8050984,18.3653733 C79.6054807,18.3653733 82.6860799,15.3911452 82.6860799,11.7223691 C82.6860799,8.05336856 79.6054807,5.07914046 75.8050984,5.07914046" id="Fill-6"></path>
                    <polygon id="Fill-8" points="97.3555057 18.3653733 88.9136691 18.3653733 88.9136691 5.07914046 97.3555057 5.07914046 97.3555057 7.77379785 91.8663926 7.77379785 91.8663926 10.2908324 95.7276465 10.2908324 95.7276465 12.9854898 91.9043237 12.9854898 91.9043237 15.6707159 97.3555057 15.6707159"></polygon>
                    <polygon id="Fill-10" points="104.699383 18.3653733 104.699383 4.89208633 113.216855 12.1712542 113.216855 5.07914046 116.018081 5.07914046 116.018081 18.4776507 107.538541 11.1796202 107.538541 18.3653733"></polygon>
                    <path d="M126.655608,13.5747215 L128.037256,10.7677868 L129.343268,13.5747215 L126.655608,13.5747215 Z M127.942542,5.07914046 L121.204427,18.3653733 L124.194854,18.3653733 L125.406379,16.0075481 L130.592497,16.0075481 L131.803795,18.3653733 L134.870085,18.3653733 L127.942542,5.07914046 Z" id="Fill-12"></path>
                </g>
            </g>
        </g>
    </g>
</svg>