<?xml version="1.0"?>
<svg xmlns="http://www.w3.org/2000/svg" viewBox="0 0 199.52 34.56">
<defs>
    <style>.cls-1{fill:#e20917;}.cls-2{fill:#fff;}</style>
</defs>
<title>KadenaWhiteLogo</title>
<g id="Layer_2" data-name="Layer 2">
    <g id="Layer_1-2" data-name="Layer 1">
        <polygon class="cls-1" points="17.16 0 17.16 17.4 34.56 0 17.16 0"/>
        <polygon class="cls-1" points="0 0.24 0 34.56 34.32 34.56 17.16 17.4 0 0.24"/>
        <path class="cls-2" d="M53.92,7.37h4.34V26.86H53.92ZM58.53,17l6.62-9.61h5L63.61,16.7,71.8,26.86H66.39Z"/>
        <path class="cls-2" d="M83.88,23.59l-1.67,3.27H77.62L87.7,7,97.78,26.86H93.19l-1.67-3.27ZM87.7,16,85.81,19.8H89.6Z"/>
        <path class="cls-2" d="M106.38,7.31H113a9.75,9.75,0,1,1,0,19.49h-6.65ZM113,22.79a5.49,5.49,0,0,0,5.52-5.74A5.49,5.49,0,0,0,113,11.32h-2.28V22.79Z"/>
        <polygon class="cls-2" points="132.11 7.37 144.47 7.37 144.47 11.54 136.48 11.54 136.48 15.03 142.02 15.03 142.02 19.2 136.48 19.2 136.48 22.69 144.47 22.69 144.47 26.86 132.11 26.86 132.11 7.37"/>
        <polygon class="cls-2" points="159.5 16.62 159.5 26.86 155.13 26.86 155.13 7.04 167.43 17.61 167.43 7.37 171.83 7.37 171.83 27.19 159.5 16.62"/>
        <path class="cls-2" d="M185.62,23.59l-1.68,3.27h-4.58L189.44,7l10.08,19.82h-4.59l-1.68-3.27Zm3.82-7.6-1.9,3.81h3.79Z"/>
    </g>
</g>
</svg>
