<svg xmlns="http://www.w3.org/2000/svg" width="62" height="60" viewBox="0 0 62 60">
    <path fill="#F1F1F1" fill-rule="nonzero" d="M57.551 22.408L62 17.926 53.106 8.96l4.445-4.479L53.102 0 23.556 29.775l.006.006c-2.312-1.353-4.965-2.184-7.83-2.184C7.043 27.597 0 34.695 0 43.447c0 8.752 7.044 15.85 15.731 15.85 8.687 0 15.731-7.098 15.731-15.85 0-3.566-1.21-6.822-3.187-9.469l11.481-11.564 8.894 8.965 4.452-4.48-8.897-8.97 4.449-4.482 8.897 8.961zm-41.82 30.548c-5.213 0-9.439-4.257-9.439-9.51 0-5.252 4.226-9.509 9.44-9.509 5.213 0 9.438 4.257 9.438 9.51 0 5.252-4.225 9.51-9.439 9.51z"/>
</svg>
