<svg xmlns="http://www.w3.org/2000/svg" width="61" height="61" viewBox="0 0 61 61">
    <g fill="none" fill-rule="evenodd">
        <path d="M-4-4h61v61H-4z"/>
        <path fill="#F1F1F1" fill-rule="nonzero" d="M48.547 29.23c.87 0 1.713.075 2.556.177L51.13 0 0 50.833h29.553a20.869 20.869 0 0 1-.18-2.541c0-10.523 8.59-19.063 19.174-19.063zm9.484 20.307c.052-.407.103-.813.103-1.245 0-.432-.026-.84-.103-1.246l2.71-2.11a.657.657 0 0 0 .154-.813l-2.557-4.397c-.153-.28-.486-.381-.792-.28l-3.17 1.272c-.665-.509-1.38-.94-2.173-1.246l-.486-3.355c-.026-.305-.307-.534-.614-.534h-5.112a.655.655 0 0 0-.64.534l-.485 3.355c-.767.33-1.509.737-2.173 1.245l-3.17-1.27a.672.672 0 0 0-.793.28l-2.556 4.396a.627.627 0 0 0 .153.814l2.71 2.11a9.876 9.876 0 0 0-.077 1.245c0 .432.026.838.077 1.245l-2.71 2.11a.657.657 0 0 0-.153.813l2.556 4.397c.154.28.486.381.793.28l3.17-1.271c.664.508 1.38.94 2.173 1.245l.485 3.355a.635.635 0 0 0 .64.534h5.112a.655.655 0 0 0 .64-.534l.485-3.355c.767-.33 1.509-.737 2.148-1.245l3.195 1.27c.281.102.614 0 .793-.279l2.556-4.397a.657.657 0 0 0-.153-.813l-2.736-2.11zm-9.484 2.567a3.819 3.819 0 0 1-3.835-3.812 3.819 3.819 0 0 1 3.835-3.813 3.819 3.819 0 0 1 3.835 3.813 3.819 3.819 0 0 1-3.835 3.812z"/>
    </g>
</svg>
