<?xml version="1.0" encoding="UTF-8"?>
<svg width="16px" height="14px" viewBox="0 0 16 14" version="1.1" xmlns="http://www.w3.org/2000/svg" xmlns:xlink="http://www.w3.org/1999/xlink">
    <!-- Generator: Sketch 52.3 (67297) - http://www.bohemiancoding.com/sketch -->
    <title>Shape</title>
    <desc>Created with Sketch.</desc>
    <g id="Page-1" stroke="none" stroke-width="1" fill="none" fill-rule="evenodd">
        <g id="3-Module-Explorer-Update1" transform="translate(-1297.000000, -248.000000)" fill="#000000" fill-rule="nonzero">
            <g id="ic-open-in-browser-24px" transform="translate(1284.000000, 242.000000)">
                <path d="M27,6 L14.75,6 C13.77875,6 13,6.7875 13,7.75 L13,18.25 C13,19.2125 13.77875,20 14.75,20 L18.25,20 L18.25,18.25 L14.75,18.25 L14.75,9.5 L27,9.5 L27,18.25 L23.5,18.25 L23.5,20 L27,20 C27.9625,20 28.75,19.2125 28.75,18.25 L28.75,7.75 C28.75,6.7875 27.97125,6 27,6 Z M20.875,11.25 L17.375,14.75 L20,14.75 L20,20 L21.75,20 L21.75,14.75 L24.375,14.75 L20.875,11.25 Z" id="Shape"></path>
            </g>
        </g>
    </g>
</svg>