<?xml version="1.0" encoding="utf-8"?>
<!-- Generator: Adobe Illustrator 21.1.0, SVG Export Plug-In . SVG Version: 6.00 Build 0)  -->
<svg version="1.1" id="Layer_1" xmlns="http://www.w3.org/2000/svg" xmlns:xlink="http://www.w3.org/1999/xlink" x="0px" y="0px"
	 viewBox="0 0 93.6 40.7" style="enable-background:new 0 0 93.6 40.7;" xml:space="preserve">
<style type="text/css">
	.st0{enable-background:new    ;}
	.st1{fill:#FFFFFF;}
</style>
<title>PACT</title>
<metadata><?xpacket begin="﻿" id="W5M0MpCehiHzreSzNTczkc9d"?>
<x:xmpmeta xmlns:x="adobe:ns:meta/" x:xmptk="Adobe XMP Core 5.6-c137 79.159768, 2016/08/11-13:24:42        ">
   <rdf:RDF xmlns:rdf="http://www.w3.org/1999/02/22-rdf-syntax-ns#">
      <rdf:Description rdf:about=""
            xmlns:dc="http://purl.org/dc/elements/1.1/">
         <dc:title>
            <rdf:Alt>
               <rdf:li xml:lang="x-default">PACT</rdf:li>
            </rdf:Alt>
         </dc:title>
      </rdf:Description>
   </rdf:RDF>
</x:xmpmeta>
                                                                                                    
                                                                                                    
                                                                                                    
                                                                                                    
                                                                                                    
                                                                                                    
                                                                                                    
                                                                                                    
                                                                                                    
                                                                                                    
                                                                                                    
                                                                                                    
                                                                                                    
                                                                                                    
                                                                                                    
                                                                                                    
                                                                                                    
                                                                                                    
                                                                                                    
                                                                                                    
                           
<?xpacket end="w"?></metadata>
<g class="st0">
	<path class="st1" d="M1.8,5.2h11.7c3.2,0,5.5,0.9,7.1,2.4c1.7,1.6,2.6,3.8,2.6,6.4c0,5-3.4,8.5-8.8,8.5H8.3v8.7H1.8V5.2z
		 M13.1,17.4c2.3,0,3.6-1.4,3.6-3.5s-1.3-3.3-3.6-3.3H8.3v6.8H13.1z"/>
</g>
<g class="st0">
	<path class="st1" d="M30.3,5.2h6.6l9.4,26h-6.8L38,26.5h-9.1l-1.5,4.7h-6.5L30.3,5.2z M36.5,21.9l-2-6.3c-0.4-1.3-1-3.7-1-3.7h-0.1
		c0,0-0.6,2.3-1.1,3.7l-2,6.3H36.5z"/>
</g>
<g class="st0">
	<path class="st1" d="M45.9,18.3c0-7.7,5-13.6,12.8-13.6c3,0,5.6,0.9,7.4,2.3c2.3,1.7,3.6,4.2,3.9,7.2h-6.4
		c-0.3-2.3-2.1-4.1-4.9-4.1c-4.2,0-6.2,3.5-6.2,8.2c0,4.8,2.4,8.2,6.2,8.2c2.9,0,4.8-1.8,5-4.3h6.4c-0.2,2.6-1.3,4.9-3.1,6.6
		c-2,1.9-4.6,2.9-8.3,2.9C51.1,31.7,45.9,26,45.9,18.3z"/>
</g>
<g class="st0">
	<path class="st1" d="M79.1,10.6h-7.6V5.2h21.6v5.4h-7.6v20.5h-6.4V10.6z"/>
</g>
</svg>
