<svg id="Layer_1" data-name="Layer 1" xmlns="http://www.w3.org/2000/svg" width="1.27in" height="0.38in" viewBox="0 0 91.3 27"><defs><style>.cls-1{fill:#fff;}</style></defs><title>pact-logo1_resized</title><path class="cls-1" d="M.29.68H12a10,10,0,0,1,7.1,2.4,8.51,8.51,0,0,1,2.6,6.4c0,5-3.4,8.5-8.8,8.5H6.79v8.7H.29Zm11.3,12.2a3.28,3.28,0,0,0,3.6-3.5c0-2.1-1.3-3.3-3.6-3.3H6.79v6.8Z" transform="translate(-0.29 -0.18)"/><path class="cls-1" d="M28.79.68h6.6l9.4,26H38L36.49,22h-9.1l-1.5,4.7h-6.5ZM35,17.38l-2-6.3c-.4-1.3-1-3.7-1-3.7h-.1s-.6,2.3-1.1,3.7l-2,6.3Z" transform="translate(-0.29 -0.18)"/><path class="cls-1" d="M44.39,13.78c0-7.7,5-13.6,12.8-13.6a12.08,12.08,0,0,1,7.4,2.3,9.84,9.84,0,0,1,3.9,7.2h-6.4a4.66,4.66,0,0,0-4.9-4.1c-4.2,0-6.2,3.5-6.2,8.2s2.4,8.2,6.2,8.2a4.64,4.64,0,0,0,5-4.3h6.4a10,10,0,0,1-3.1,6.6c-2,1.9-4.6,2.9-8.3,2.9C49.59,27.18,44.39,21.48,44.39,13.78Z" transform="translate(-0.29 -0.18)"/><path class="cls-1" d="M77.59,6.08H70V.68h21.6v5.4H84v20.5h-6.4Z" transform="translate(-0.29 -0.18)"/></svg>