<?xml version="1.0" encoding="utf-8"?>
<!-- Generator: Adobe Illustrator 22.1.0, SVG Export Plug-In . SVG Version: 6.00 Build 0)  -->
<svg version="1.1" xmlns="http://www.w3.org/2000/svg" xmlns:xlink="http://www.w3.org/1999/xlink" x="0px" y="0px"
	 viewBox="0 0 317.7 175.2" style="enable-background:new 0 0 317.7 175.2;" xml:space="preserve">
<style type="text/css">
	.st0{fill:#F2F2F2;}
	.st1{fill:#FFFFFF;}
</style>
<g id="Layer_1" style="fill: rgba(0,0,0,0);">
	<g>
		<rect x="-0.7" y="-0.5" width="319.3" height="175.3"/>
	</g>
</g>
<g id="Layer_2">
	<path class="st0" d="M140.5,131.4H93.4L81.2,153H62.8L118,58.9l52.7,94.1h-18.4L140.5,131.4z M133.9,118.7l-16.5-30l-17.1,30H133.9
		z"/>
	<path class="st0" d="M222.3,49c-10-8-20-8-25.9-8c-20.1,0-34.4,12.6-34.4,32.5c0,19.2,14.1,31.7,34.4,31.7c0,0,15.1,1.2,25.9-8.4
		v16.5c-3,1.8-11.9,6.8-26.3,6.8c-8.2,0-21.6-1.5-34-12.5c-9.3-8.4-15.3-19.4-15.3-34.1c0-11.8,3.8-25,15.3-35.4
		c10-9,21.5-12,34.6-12c12.3,0,19.7,3,25.6,6.7V49z"/>
	<path class="st0" d="M265.2,75.4V153H248V75.4h-25.4V59h67.9v16.4H265.2z"/>
	<g>
		<path class="st1" d="M31.1,120V26l37.1,0.1c6.2,0,11,0.3,14.3,0.9c4.6,0.8,8.5,2.2,11.6,4.4c3.1,2.2,5.9,4.6,7.8,8.5
			c1.9,3.9,3.2,8.7,3.2,13.4c0,8-2.6,15.5-7.6,21c-5.1,5.5-14.6,9.5-27.9,9.5H45.5l-0.3,36.4L31.1,120z M45.3,70.1h24.2
			c8,0,13.2-1,16.6-4c3.4-3,4.7-4.7,5.5-9.5c0.7-3.9,0-9-2-11.4c-2-2.4-4.2-4.4-7.5-5.3c-1.5-0.4-6.9-1-12.7-1.1l-24,0.2L45.3,70.1z
			"/>
	</g>
</g>
</svg>
