<?xml version="1.0" encoding="UTF-8"?>
<svg width="89px" height="23px" viewBox="0 0 89 23" version="1.1" xmlns="http://www.w3.org/2000/svg" xmlns:xlink="http://www.w3.org/1999/xlink">
    <!-- Generator: Sketch 52.2 (67145) - http://www.bohemiancoding.com/sketch -->
    <title>Group 13</title>
    <desc>Created with Sketch.</desc>
    <g id="Page-1" stroke="none" stroke-width="1" fill="none" fill-rule="evenodd">
        <g id="ENV-/-Data-/-Keysets" transform="translate(-50.000000, -23.000000)" fill="#FFFFFF">
            <g id="Group-13" transform="translate(50.000000, 23.000000)">
                <path d="M65.8058252,5.87271014 C64.4056271,6.82205628 63.0475275,7.74288849 61.5816556,8.73668281 C60.1313601,6.50546779 58.2217694,5.00890579 55.3956929,5.21437381 C53.8018414,5.33010682 52.4003803,5.90332068 51.3336027,7.1411607 C49.1528972,9.67219131 49.4606377,13.9941483 51.9617133,16.0341523 C54.8871423,18.4205166 58.5859219,17.6011605 61.6090196,13.8176136 C62.9978512,14.7589926 64.3946815,15.7058228 65.7750933,16.6417506 C64.2065009,20.7670453 58.8953464,23.2167274 53.5458821,22.3508264 C48.2663015,21.4962472 44.2046323,16.9432435 44.0627601,11.7214204 C43.9124683,6.18845998 47.5333656,1.55620432 52.9729207,0.322138201 C58.3430132,-0.896412985 63.8069855,1.42579502 65.8058252,5.87271014" id="Fill-1"></path>
                <path d="M5.62003883,10.1022494 C6.53192138,10.1022494 7.39087473,10.1060134 8.24941132,10.1001583 C8.52656027,10.0984854 8.80912716,10.1018312 9.07960786,10.0508081 C10.2878106,9.82413144 11.0909174,8.75682748 11.0459067,7.46535624 C11.0017296,6.19563256 10.1969557,5.18646154 8.99167038,5.08817924 C7.89516079,4.99867961 6.78614824,5.06935922 5.62003883,5.06935922 L5.62003883,10.1022494 Z M-4.16765333e-05,0.0753637043 C2.98024722,0.0753637043 5.92136017,0.0548707991 8.86205636,0.0908379388 C9.58222685,0.0992023898 10.3153171,0.233870052 11.0163164,0.412869305 C14.8430556,1.38941897 16.9306332,4.22538611 16.742672,8.13994922 C16.5818006,11.492003 13.874493,14.3660284 10.2694729,14.8704048 C8.76620033,15.0807707 7.23167038,15.0657147 5.58711437,15.1606512 L5.58711437,21.7326004 L-4.16765333e-05,21.7326004 L-4.16765333e-05,0.0753637043 Z" id="Fill-3"></path>
                <polygon id="Fill-6" points="82.4130537 21.738121 76.7872673 21.738121 76.7872673 5.2128932 70.4295197 5.2128932 70.4295197 0.121033607 88.7517463 0.121033607 88.7517463 5.17776251 82.4130537 5.17776251"></polygon>
                <path d="M27.4320418,15.7656555 L29.4445288,10.8061446 L31.3269485,15.7656555 L27.4320418,15.7656555 Z M29.4570754,0.069574973 L18.7673069,22.1537893 L24.8645736,22.0920561 L25.558823,20.3810457 L33.0788827,20.3810457 L33.7518028,22.1529551 L40.1334608,22.1529551 L29.4570754,0.069574973 Z" id="Fill-9"></path>
            </g>
        </g>
    </g>
</svg>