<?xml version="1.0" encoding="UTF-8"?>
<svg width="15px" height="15px" viewBox="0 0 15 15" version="1.1" xmlns="http://www.w3.org/2000/svg" xmlns:xlink="http://www.w3.org/1999/xlink">
    <!-- Generator: Sketch 52.2 (67145) - http://www.bohemiancoding.com/sketch -->
    <title>Shape</title>
    <desc>Created with Sketch.</desc>
    <g id="Page-1" stroke="none" stroke-width="1" fill="none" fill-rule="evenodd">
        <g id="Module-Explorer" transform="translate(-1359.000000, -409.000000)" fill="#A8A8A8" fill-rule="nonzero">
            <g id="Search-Alternate" transform="translate(1359.000000, 409.000000)">
                <path d="M14.5015707,13.3965709 L10.4209457,9.31594592 L10.4209458,9.31594577 C12.3611895,6.76542702 11.8664645,3.12495202 9.31594577,1.18469577 C6.76542702,-0.755547981 3.12495202,-0.260822981 1.18469577,2.28969577 C-0.755547981,4.84021452 -0.260822981,8.48068952 2.28969577,10.4209458 C4.36557702,12.0001208 7.24004577,12.0001208 9.31594577,10.4209455 L13.3965708,14.5015705 C13.7039052,14.8013574 14.1942395,14.8013574 14.5015708,14.5015705 C14.8064202,14.1963137 14.8064202,13.7018268 14.5015706,13.3965705 L14.5015707,13.3965709 Z M1.60532065,5.82219592 L1.60532065,5.82219656 C1.6053203,3.49224656 3.49412065,1.60344656 5.82407065,1.60344656 C8.15402065,1.60344621 10.0428207,3.49224656 10.0428207,5.82219656 C10.042821,8.15214656 8.15402065,10.0409466 5.82407065,10.0409466 C3.49526429,10.0381917 1.60807679,8.15100281 1.60532054,5.82219656 L1.60532065,5.82219592 Z" id="Shape"></path>
            </g>
        </g>
    </g>
</svg>