<svg xmlns="http://www.w3.org/2000/svg" viewBox="0 0 283.76 261.6"><defs><style>.cls-1{fill:none;stroke:#a8a8a8;stroke-miterlimit:10;stroke-width:37px;}.cls-2{fill:#a8a8a8;}</style></defs><title>Asset 10</title><g id="Layer_2" data-name="Layer 2"><g id="Layer_1-2" data-name="Layer 1"><path class="cls-1" d="M.09,205.61c23.54-.11,80.36,9.49,113.64-75.63"/><path class="cls-2" d="M282.18,52.15a5,5,0,0,1,0,6.89L259.85,82.76l-25.64,27.17a5,5,0,0,1-5.35,1.25,4.69,4.69,0,0,1-3.17-4.38V5.43a5.94,5.94,0,0,1,1.75-4.21h0a4.14,4.14,0,0,1,5.93.06Z"/><path class="cls-1" d="M226.68,54c-23.54.11-80.36-9.49-113.65,75.62"/><path class="cls-1" d="M.27,56c23.55.11,80.36-9.49,113.65,75.63"/><path class="cls-2" d="M282.37,209.45a5,5,0,0,0,0-6.89L260,178.84l-25.64-27.17a5,5,0,0,0-5.35-1.25,4.69,4.69,0,0,0-3.17,4.38V256.17a5.94,5.94,0,0,0,1.75,4.21h0a4.16,4.16,0,0,0,5.94-.06Z"/><path class="cls-1" d="M226.87,205.58c-23.55-.11-80.36,9.49-113.65-75.63"/></g></g></svg>