<svg xmlns="http://www.w3.org/2000/svg" width="70" height="78" viewBox="0 0 70 78">
    <g fill="none" fill-rule="evenodd" transform="translate(2 2)">
        <ellipse cx="28.1" cy="8" stroke="#F1F1F1" stroke-width="4" rx="28" ry="8"/>
        <path stroke="#F1F1F1" stroke-width="4" d="M.1 10c4.697 4.036 14.03 6.055 28 6.055s23.303-2.019 28-6.055v17.136C51.144 31.046 41.81 33 28.1 33S5.056 31.045.1 27.136V10z"/>
        <path stroke="#F1F1F1" stroke-width="4" d="M.1 27c4.697 4.036 14.03 6.055 28 6.055s23.303-2.019 28-6.055v17.136C51.144 48.046 41.81 50 28.1 50S5.056 48.045.1 44.136V27z"/>
        <path stroke="#F1F1F1" stroke-width="4" d="M.1 44c4.697 4.036 14.03 6.055 28 6.055s23.303-2.019 28-6.055v17.136C51.144 65.046 41.81 67 28.1 67S5.056 65.045.1 61.136V44z"/>
        <circle cx="52.5" cy="60.5" r="13.5" fill="#454444" stroke="#F1F1F1" stroke-width="4"/>
        <path fill="#F1F1F1" fill-rule="nonzero" d="M59.505 56.164l-1.855-1.925a.327.327 0 0 0-.47 0l-7.833 8.111a.327.327 0 0 1-.47 0l-1.855-1.924a.327.327 0 0 0-.47 0l-1.855 1.924a.352.352 0 0 0 0 .486l4.18 4.326a.327.327 0 0 0 .47 0l10.158-10.517a.352.352 0 0 0 0-.481z"/>
    </g>
</svg>
