<?xml version="1.0" encoding="UTF-8"?>
<svg width="18px" height="12px" viewBox="0 0 18 12" version="1.1" xmlns="http://www.w3.org/2000/svg" xmlns:xlink="http://www.w3.org/1999/xlink">
    <!-- Generator: Sketch 52.2 (67145) - http://www.bohemiancoding.com/sketch -->
    <title>Group 5</title>
    <desc>Created with Sketch.</desc>
    <g id="Page-1" stroke="none" stroke-width="1" fill="none" fill-rule="evenodd">
        <g id="Module-Explorer" transform="translate(-1297.000000, -249.000000)" fill="#000000">
            <g id="view-1" transform="translate(1297.000000, 249.000000)">
                <g id="Group-5">
                    <path d="M17.574,4.893 C15.59025,2.7105 12.3,0.4035 9,0.45 C5.7,0.40275 2.40975,2.71125 0.426,4.893 C-0.137018248,5.5224735 -0.137018248,6.474525 0.425999998,7.104 C2.3865,9.26325 5.63025,11.55 8.87925,11.55 L9.11025,11.55 C12.3705,11.55 15.6135,9.26325 17.57625,7.10325 C18.138522,6.47345025 18.137553,5.5216575 17.574,4.893 Z M5.55,6 L5.55,5.99999948 C5.55000029,4.09461698 7.0946175,2.54999948 9,2.54999948 C10.9053825,2.54999977 12.45,4.09461698 12.45,5.99999948 C12.4499997,7.90538198 10.9053825,9.44999948 9,9.44999948 C7.09461746,9.44999917 5.54999996,7.90538198 5.54999996,5.99999948 L5.55,6 Z" id="Shape" fill-rule="nonzero"></path>
                    <path d="M10.06065,4.93935 C10.6464367,5.52513675 10.6464367,6.474885 10.06065,7.0606725 C9.47486325,7.64645925 8.525115,7.64645925 7.9393275,7.0606725 C7.35354075,6.47488575 7.35354075,5.5251375 7.9393275,4.93935 C8.52511425,4.35356325 9.4748625,4.35356325 10.06065,4.93935" id="Path"></path>
                </g>
            </g>
        </g>
    </g>
</svg>