<svg xmlns="http://www.w3.org/2000/svg" width="17" height="17" viewBox="0 0 17 17">
    <path fill="#36d1ef" fill-rule="nonzero" d="M16.105 13.421v.895c0 .988-.8 1.79-1.79 1.79H1.79c-.988 0-1.789-.802-1.789-1.79V1.789C0 .801.8 0 1.79 0h12.526c.988 0 1.79.8 1.79 1.79v.894H8.052c-.99 0-1.79.801-1.79 1.79v7.158c0 .988.8 1.79 1.79 1.79h8.052zm-8.052-1.79H17V4.475H8.053v7.158zm3.579-2.236a1.34 1.34 0 0 1-1.343-1.342c0-.743.6-1.342 1.343-1.342.742 0 1.342.599 1.342 1.342 0 .742-.6 1.342-1.342 1.342z"/>
</svg>
