<?xml version="1.0" encoding="UTF-8"?>
<svg width="10px" height="10px" viewBox="0 0 10 10" version="1.1" xmlns="http://www.w3.org/2000/svg" xmlns:xlink="http://www.w3.org/1999/xlink">
    <!-- Generator: Sketch 52.3 (67297) - http://www.bohemiancoding.com/sketch -->
    <title>Path</title>
    <desc>Created with Sketch.</desc>
    <g id="Page-1" stroke="none" stroke-width="1" fill="none" fill-rule="evenodd">
        <g id="1-ENV-/-Data-/-Keysets-Copy" transform="translate(-1354.000000, -683.000000)" fill="#2D2D2F">
            <g id="delete-2-alternate" transform="translate(1346.000000, 365.000000)">
                <path d="M17.6523124,318.347789 C17.1868238,317.88407 16.4338215,317.88407 15.9683329,318.347789 L12.9961089,321.31897 L10.0201428,318.347789 C9.55067302,317.899246 8.80875809,317.907736 8.34968309,318.366905 C7.89060809,318.826073 7.88252585,319.567732 8.3314855,320.036789 L11.3027739,323.007971 L8.3314855,325.980087 C7.88252585,326.449144 7.89060809,327.190803 8.34968309,327.649972 C8.80875809,328.10914 9.55067302,328.11763 10.0201428,327.669088 L12.9914312,324.697906 L15.9636551,327.670023 C16.4370141,328.090592 17.1564257,328.068839 17.6034916,327.62044 C18.0505576,327.172041 18.0699236,326.452814 17.6476347,325.981023 L14.6763463,323.008906 L17.6476347,320.037724 C18.1156223,319.572298 18.1177163,318.815796 17.6523124,318.347789 Z" id="Path"></path>
            </g>
        </g>
    </g>
</svg>