<?xml version="1.0" encoding="UTF-8" standalone="no"?>
<svg
   xmlns:dc="http://purl.org/dc/elements/1.1/"
   xmlns:cc="http://creativecommons.org/ns#"
   xmlns:rdf="http://www.w3.org/1999/02/22-rdf-syntax-ns#"
   xmlns:svg="http://www.w3.org/2000/svg"
   xmlns="http://www.w3.org/2000/svg"
   xmlns:sodipodi="http://sodipodi.sourceforge.net/DTD/sodipodi-0.dtd"
   xmlns:inkscape="http://www.inkscape.org/namespaces/inkscape"
   width="16px"
   height="18px"
   viewBox="0 0 16 18"
   version="1.1"
   id="svg4637"
   sodipodi:docname="keys.svg"
   inkscape:version="0.92.4 (5da689c313, 2019-01-14)">
  <metadata
     id="metadata4643">
    <rdf:RDF>
      <cc:Work
         rdf:about="">
        <dc:format>image/svg+xml</dc:format>
        <dc:type
           rdf:resource="http://purl.org/dc/dcmitype/StillImage" />
      </cc:Work>
    </rdf:RDF>
  </metadata>
  <defs
     id="defs4641" />
  <sodipodi:namedview
     pagecolor="#ffffff"
     bordercolor="#666666"
     borderopacity="1"
     objecttolerance="10"
     gridtolerance="10"
     guidetolerance="10"
     inkscape:pageopacity="0"
     inkscape:pageshadow="2"
     inkscape:window-width="1278"
     inkscape:window-height="1438"
     id="namedview4639"
     showgrid="false"
     inkscape:zoom="13.111111"
     inkscape:cx="-5.6144068"
     inkscape:cy="9"
     inkscape:window-x="0"
     inkscape:window-y="0"
     inkscape:window-maximized="0"
     inkscape:current-layer="svg4637" />
  <!-- Generator: Sketch 52.3 (67297) - http://www.bohemiancoding.com/sketch -->
  <title
     id="title4628">login-keys</title>
  <desc
     id="desc4630">Created with Sketch.</desc>
  <g
     id="Page-1"
     stroke="none"
     stroke-width="1"
     fill="none"
     fill-rule="evenodd"
     style="fill:#ffffff;fill-opacity:1">
    <g
       id="1-ENV-/-Data-/-Keysets-Copy"
       transform="translate(-774.000000, -361.000000)"
       fill="#000000"
       style="fill:#ffffff;fill-opacity:1">
      <g
         id="login-keys"
         transform="translate(774.000000, 361.000000)"
         style="fill:#ffffff;fill-opacity:1">
        <path
           d="M9,6.48 C9.00085011,5.42863121 8.61666073,4.41334675 7.92,3.62592 L7.92,1.8 C7.92,0.80588745 7.11411255,6.08718376e-17 6.12,0 C5.12588745,-6.08718376e-17 4.32,0.80588745 4.32,1.8 L4.32,2.17512 C2.29439062,2.34838215 0.663688252,3.91053984 0.403653776,5.92684716 C0.143619301,7.94315448 1.32462737,9.86792636 3.24,10.54944 L3.24,11.01096 L2.62512,11.62512 C2.55764596,11.6927645 2.51982936,11.7844568 2.52,11.88 C2.52022098,11.9754655 2.55797844,12.0670145 2.62512,12.13488 L3.24,12.74976 L3.24,13.17168 L2.62512,13.78656 C2.4845825,13.9271399 2.4845825,14.1550201 2.62512,14.2956 L3.24,14.90976 L3.24,15.84 C3.23982936,15.9355432 3.27764596,16.0272355 3.34512,16.09488 L4.42512,17.17488 C4.49265907,17.24259 4.58436437,17.2806435 4.68,17.2806435 C4.77563563,17.2806435 4.86734093,17.24259 4.93488,17.17488 L6.01488,16.09488 C6.08235404,16.0272355 6.12017064,15.9355432 6.12,15.84 L6.12,10.54944 C7.84225161,9.9362117 8.99444678,8.30815993 9,6.48 Z M4.68,4.32 C5.07764502,4.32 5.4,4.64235498 5.4,5.04 C5.4,5.43764502 5.07764502,5.76 4.68,5.76 C4.28235498,5.76 3.96,5.43764502 3.96,5.04 C3.96,4.64235498 4.28235498,4.32 4.68,4.32 Z M6.12,0.72 C6.71646753,0.72 7.2,1.20353247 7.2,1.8 L7.2,2.9736 C6.76614674,2.66061412 6.27783259,2.43110646 5.76,2.2968 L5.76,3.6 L5.04,3.6 L5.04,1.8 C5.04,1.20353247 5.52353247,0.72 6.12,0.72 Z"
           id="Shape"
           fill-rule="nonzero"
           style="fill:#ffffff;fill-opacity:1" />
        <path
           d="M15.37488,12.97872 L11.63088,9.23472 C12.5760171,7.28817912 11.9200575,4.94242041 10.10232,3.76848 C9.96794273,3.68036182 9.79143718,3.69197289 9.66976132,3.79693503 C9.54808546,3.90189717 9.51070755,4.07478997 9.57816,4.22064 C10.7131175,6.66857202 9.85890191,9.57857092 7.58088,11.02464 C7.4463676,11.110823 7.3847407,11.2753437 7.42952914,11.4286901 C7.47431759,11.5820364 7.61480694,11.6875242 7.77456,11.68776 L7.77888,11.68776 C8.41237568,11.6817335 9.03685781,11.5369795 9.6084,11.26368 L10.0764,11.67912 L10.0764,12.6 C10.0764,12.7988225 10.2375775,12.96 10.4364,12.96 L11.36232,12.96 L11.5164,13.12128 L11.5164,14.04 C11.5164,14.2388225 11.6775775,14.4 11.8764,14.4 L12.68208,14.4 L13.34232,15.02208 C13.4091456,15.0850114 13.4974867,15.1200388 13.58928,15.12 L15.12,15.12 C15.3188225,15.12 15.48,14.9588225 15.48,14.76 L15.48,13.23288 C15.4799798,13.1375862 15.4421776,13.046188 15.37488,12.97872 Z"
           id="Path"
           style="fill:#ffffff;fill-opacity:1" />
      </g>
    </g>
  </g>
</svg>
