<svg xmlns="http://www.w3.org/2000/svg" width="23" height="19" viewBox="0 0 23 19">
    <g fill="#FFF" fill-rule="evenodd">
        <path d="M22.083 9.038a5.305 5.305 0 0 0-4.799-5.485.23.23 0 0 1-.176-.11 7.07 7.07 0 0 0-12.972 2.11.23.23 0 0 1-.208.184 4.272 4.272 0 0 0-3.351 2.06 4.112 4.112 0 0 0-.574 2.253 3.95 3.95 0 0 0 1.136 2.852 5.04 5.04 0 0 0 3.286 1.267h.654a.903.903 0 0 0 .904-.904v-.034a.903.903 0 0 0-.904-.902h-.65a3.285 3.285 0 0 1-1.998-.736 2.184 2.184 0 0 1-.588-1.648 2.381 2.381 0 0 1 2.379-2.38c.165 0 .33.016.492.049a.92.92 0 0 0 1.107-.886c.078-5.277 7.63-6.782 9.952-1.88a.906.906 0 0 0 .866.524 3.473 3.473 0 0 1 3.06 1.592 3.496 3.496 0 0 1-2.025 5.244.904.904 0 0 0-.654.867.899.899 0 0 0 1.148.87 5.114 5.114 0 0 0 3.915-4.907z"/>
        <path d="M12.423 12.329a.46.46 0 0 1-.46-.46v-2.76a.46.46 0 0 0-.46-.46h-3.68a.46.46 0 0 0-.46.46v9.2c0 .254.206.46.46.46h7.36a.46.46 0 0 0 .46-.46v-5.52a.46.46 0 0 0-.46-.46h-2.76z"/>
        <path d="M14.816 11.366a.23.23 0 0 0 .162-.393l-1.705-1.705a.23.23 0 0 0-.393.162v1.706c0 .127.103.23.23.23h1.706z"/>
    </g>
</svg>
