<svg xmlns="http://www.w3.org/2000/svg" width="17" height="17" viewBox="0 0 17 17">
    <path fill="none" fill-rule="nonzero" stroke="#FFF" stroke-width="1.5" d="M14.225 9.231c.031-.24.054-.484.054-.731s-.023-.491-.054-.731l1.63-1.241a.367.367 0 0 0 .093-.48l-1.541-2.6a.386.386 0 0 0-.47-.16l-1.92.753a5.89 5.89 0 0 0-1.303-.738l-.289-1.988A.394.394 0 0 0 10.04 1H6.956a.386.386 0 0 0-.381.315l-.29 1.988c-.47.19-.905.438-1.302.738l-1.92-.753a.39.39 0 0 0-.47.16l-1.541 2.6a.369.369 0 0 0 .092.48l1.627 1.24c-.031.24-.054.485-.054.732s.023.491.054.731l-1.627 1.241a.367.367 0 0 0-.092.48l1.541 2.6a.386.386 0 0 0 .47.16l1.92-.753a5.89 5.89 0 0 0 1.303.738l.289 1.988c.03.176.189.315.381.315h3.084c.192 0 .35-.139.381-.315l.29-1.988c.47-.19.905-.438 1.302-.738l1.92.753a.39.39 0 0 0 .47-.16l1.541-2.6a.369.369 0 0 0-.092-.48l-1.627-1.24zm-5.727 1.894C7.006 11.125 5.8 9.951 5.8 8.5s1.206-2.625 2.698-2.625 2.698 1.174 2.698 2.625-1.206 2.625-2.698 2.625z"/>
</svg>
